<svg width="94" height="37" viewBox="0 0 94 37" fill="none" xmlns="http://www.w3.org/2000/svg">
<g clip-path="url(#clip0_467_35)">
<path d="M13.6536 37C12.224 37 11.0624 35.936 11.0624 34.6266C11.0624 33.3171 12.224 32.2531 13.6536 32.2531C15.0831 32.2531 16.2447 33.3171 16.2447 34.6266C16.2447 35.936 15.0831 37 13.6536 37Z" fill="white"/>
<path d="M13.6536 4.74688C12.224 4.74688 11.0624 3.68287 11.0624 2.37344C11.0624 1.06401 12.224 0 13.6536 0C15.0831 0 16.2447 1.06401 16.2447 2.37344C16.2447 3.68287 15.0831 4.74688 13.6536 4.74688Z" fill="white"/>
<path d="M25.527 15.499C24.0974 15.499 22.9358 14.435 22.9358 13.1256C22.9358 11.8162 24.0974 10.7521 25.527 10.7521C26.9565 10.7521 28.1181 11.8162 28.1181 13.1256C28.1181 14.435 26.9565 15.499 25.527 15.499Z" fill="white"/>
<path d="M25.527 26.2495C24.0974 26.2495 22.9358 25.1855 22.9358 23.8761C22.9358 22.5666 24.0974 21.5026 25.527 21.5026C26.9565 21.5026 28.1181 22.5666 28.1181 23.8761C28.1181 25.1855 26.9565 26.2495 25.527 26.2495Z" fill="white"/>
<path d="M19.5894 31.6256C18.1599 31.6256 16.9982 30.5616 16.9982 29.2521C16.9982 27.9427 18.1599 26.8787 19.5894 26.8787C21.019 26.8787 22.1806 27.9444 22.1806 29.2521C22.1806 30.5599 21.019 31.6256 19.5894 31.6256Z" fill="white"/>
<path d="M19.5894 10.123C18.1599 10.123 16.9982 9.05894 16.9982 7.74951C16.9982 6.44008 18.1599 5.37607 19.5894 5.37607C21.019 5.37607 22.1806 6.44008 22.1806 7.74951C22.1806 9.05894 21.019 10.123 19.5894 10.123Z" fill="white"/>
<path d="M31.4088 20.8734C29.9793 20.8734 28.8176 19.8078 28.8176 18.5C28.8176 17.1922 29.9793 16.1266 31.4088 16.1266C32.8384 16.1266 34 17.1906 34 18.5C34 19.8094 32.8384 20.8734 31.4088 20.8734Z" fill="white"/>
<path d="M2.59118 37C1.16162 37 0 35.936 0 34.6266C0 33.3171 1.16162 32.2531 2.59118 32.2531C4.02073 32.2531 5.18236 33.3171 5.18236 34.6266C5.18236 35.936 4.02073 37 2.59118 37Z" fill="white"/>
<path d="M2.59118 4.74688C1.16162 4.74688 0 3.68287 0 2.37344C0 1.06401 1.16162 0 2.59118 0C4.02073 0 5.18236 1.06401 5.18236 2.37344C5.18236 3.68287 4.02073 4.74688 2.59118 4.74688Z" fill="white"/>
<path d="M14.4646 15.499C13.035 15.499 11.8734 14.435 11.8734 13.1256C11.8734 11.8162 13.0368 10.7521 14.4646 10.7521C15.8923 10.7521 17.0558 11.8162 17.0558 13.1256C17.0558 14.435 15.8941 15.499 14.4646 15.499Z" fill="white"/>
<path d="M14.4646 26.2495C13.035 26.2495 11.8734 25.1855 11.8734 23.8761C11.8734 22.5666 13.0368 21.5026 14.4646 21.5026C15.8923 21.5026 17.0558 22.5666 17.0558 23.8761C17.0558 25.1855 15.8941 26.2495 14.4646 26.2495Z" fill="white"/>
<path d="M8.5288 31.6256C7.09925 31.6256 5.93762 30.5616 5.93762 29.2521C5.93762 27.9427 7.09925 26.8787 8.5288 26.8787C9.95835 26.8787 11.12 27.9444 11.12 29.2521C11.12 30.5599 9.95835 31.6256 8.5288 31.6256Z" fill="white"/>
<path d="M8.5288 10.123C7.09925 10.123 5.93762 9.05894 5.93762 7.74951C5.93762 6.44008 7.09925 5.37607 8.5288 5.37607C9.95835 5.37607 11.12 6.44008 11.12 7.74951C11.12 9.05894 9.95835 10.123 8.5288 10.123Z" fill="white"/>
<path d="M20.3464 20.8734C18.9169 20.8734 17.7552 19.8078 17.7552 18.5C17.7552 17.1922 18.9169 16.1266 20.3464 16.1266C21.776 16.1266 22.9376 17.1906 22.9376 18.5C22.9376 19.8094 21.776 20.8734 20.3464 20.8734Z" fill="white"/>
</g>
<g clip-path="url(#clip1_467_35)">
<path d="M73.6536 37C72.224 37 71.0624 35.936 71.0624 34.6266C71.0624 33.3171 72.224 32.2531 73.6536 32.2531C75.0831 32.2531 76.2447 33.3171 76.2447 34.6266C76.2447 35.936 75.0831 37 73.6536 37Z" fill="white" fill-opacity="0.2"/>
<path d="M73.6536 4.74688C72.224 4.74688 71.0624 3.68287 71.0624 2.37344C71.0624 1.06401 72.224 0 73.6536 0C75.0831 0 76.2447 1.06401 76.2447 2.37344C76.2447 3.68287 75.0831 4.74688 73.6536 4.74688Z" fill="white" fill-opacity="0.2"/>
<path d="M85.527 15.499C84.0974 15.499 82.9358 14.435 82.9358 13.1256C82.9358 11.8162 84.0974 10.7521 85.527 10.7521C86.9565 10.7521 88.1181 11.8162 88.1181 13.1256C88.1181 14.435 86.9565 15.499 85.527 15.499Z" fill="white" fill-opacity="0.2"/>
<path d="M85.527 26.2495C84.0974 26.2495 82.9358 25.1855 82.9358 23.8761C82.9358 22.5666 84.0974 21.5026 85.527 21.5026C86.9565 21.5026 88.1181 22.5666 88.1181 23.8761C88.1181 25.1855 86.9565 26.2495 85.527 26.2495Z" fill="white" fill-opacity="0.2"/>
<path d="M79.5894 31.6256C78.1599 31.6256 76.9982 30.5616 76.9982 29.2521C76.9982 27.9427 78.1599 26.8787 79.5894 26.8787C81.019 26.8787 82.1806 27.9444 82.1806 29.2521C82.1806 30.5599 81.019 31.6256 79.5894 31.6256Z" fill="white" fill-opacity="0.2"/>
<path d="M79.5894 10.123C78.1599 10.123 76.9982 9.05894 76.9982 7.74951C76.9982 6.44008 78.1599 5.37607 79.5894 5.37607C81.019 5.37607 82.1806 6.44008 82.1806 7.74951C82.1806 9.05894 81.019 10.123 79.5894 10.123Z" fill="white" fill-opacity="0.2"/>
<path d="M91.4088 20.8734C89.9793 20.8734 88.8176 19.8078 88.8176 18.5C88.8176 17.1922 89.9793 16.1266 91.4088 16.1266C92.8384 16.1266 94 17.1906 94 18.5C94 19.8094 92.8384 20.8734 91.4088 20.8734Z" fill="white" fill-opacity="0.2"/>
<path d="M62.5912 37C61.1616 37 60 35.936 60 34.6266C60 33.3171 61.1616 32.2531 62.5912 32.2531C64.0207 32.2531 65.1824 33.3171 65.1824 34.6266C65.1824 35.936 64.0207 37 62.5912 37Z" fill="white" fill-opacity="0.2"/>
<path d="M62.5912 4.74688C61.1616 4.74688 60 3.68287 60 2.37344C60 1.06401 61.1616 0 62.5912 0C64.0207 0 65.1824 1.06401 65.1824 2.37344C65.1824 3.68287 64.0207 4.74688 62.5912 4.74688Z" fill="white" fill-opacity="0.2"/>
<path d="M74.4646 15.499C73.035 15.499 71.8734 14.435 71.8734 13.1256C71.8734 11.8162 73.0368 10.7521 74.4646 10.7521C75.8923 10.7521 77.0558 11.8162 77.0558 13.1256C77.0558 14.435 75.8941 15.499 74.4646 15.499Z" fill="white" fill-opacity="0.2"/>
<path d="M74.4646 26.2495C73.035 26.2495 71.8734 25.1855 71.8734 23.8761C71.8734 22.5666 73.0368 21.5026 74.4646 21.5026C75.8923 21.5026 77.0558 22.5666 77.0558 23.8761C77.0558 25.1855 75.8941 26.2495 74.4646 26.2495Z" fill="white" fill-opacity="0.2"/>
<path d="M68.5288 31.6256C67.0992 31.6256 65.9376 30.5616 65.9376 29.2521C65.9376 27.9427 67.0992 26.8787 68.5288 26.8787C69.9584 26.8787 71.12 27.9444 71.12 29.2521C71.12 30.5599 69.9584 31.6256 68.5288 31.6256Z" fill="white" fill-opacity="0.2"/>
<path d="M68.5288 10.123C67.0992 10.123 65.9376 9.05894 65.9376 7.74951C65.9376 6.44008 67.0992 5.37607 68.5288 5.37607C69.9584 5.37607 71.12 6.44008 71.12 7.74951C71.12 9.05894 69.9584 10.123 68.5288 10.123Z" fill="white" fill-opacity="0.2"/>
<path d="M80.3464 20.8734C78.9169 20.8734 77.7552 19.8078 77.7552 18.5C77.7552 17.1922 78.9169 16.1266 80.3464 16.1266C81.776 16.1266 82.9376 17.1906 82.9376 18.5C82.9376 19.8094 81.776 20.8734 80.3464 20.8734Z" fill="white" fill-opacity="0.2"/>
</g>
<defs>
<clipPath id="clip0_467_35">
<rect width="34" height="37" fill="white"/>
</clipPath>
<clipPath id="clip1_467_35">
<rect width="34" height="37" fill="white" transform="translate(60)"/>
</clipPath>
</defs>
</svg>
