<svg width="42" height="23" viewBox="0 0 42 23" fill="none" xmlns="http://www.w3.org/2000/svg">
<g clip-path="url(#clip0_507_34)">
<path d="M33.5669 -2.01671e-05C34.4499 -2.00899e-05 35.1674 0.661394 35.1674 1.47536C35.1674 2.28933 34.4499 2.95074 33.5669 2.95074C32.684 2.95074 31.9665 2.28933 31.9665 1.47536C31.9665 0.661394 32.684 -2.02443e-05 33.5669 -2.01671e-05Z" fill="white"/>
<path d="M33.5669 20.0492C34.4499 20.0492 35.1674 20.7106 35.1674 21.5246C35.1674 22.3386 34.4499 23 33.5669 23C32.684 23 31.9665 22.3386 31.9665 21.5246C31.9665 20.7106 32.684 20.0492 33.5669 20.0492Z" fill="white"/>
<path d="M26.2334 13.3655C27.1163 13.3655 27.8338 14.0269 27.8338 14.8408C27.8338 15.6548 27.1163 16.3162 26.2334 16.3162C25.3504 16.3162 24.6329 15.6548 24.6329 14.8408C24.6329 14.0269 25.3504 13.3655 26.2334 13.3655Z" fill="white"/>
<path d="M26.2334 6.68272C27.1163 6.68272 27.8338 7.34413 27.8338 8.1581C27.8338 8.97207 27.1163 9.63348 26.2334 9.63348C25.3504 9.63348 24.6329 8.97207 24.6329 8.1581C24.6329 7.34413 25.3504 6.68272 26.2334 6.68272Z" fill="white"/>
<path d="M29.9007 3.34086C30.7836 3.34086 31.5011 4.00227 31.5011 4.81624C31.5011 5.63021 30.7836 6.29163 29.9007 6.29163C29.0177 6.29163 28.3002 5.62919 28.3002 4.81624C28.3002 4.0033 29.0177 3.34086 29.9007 3.34086Z" fill="white"/>
<path d="M29.9007 16.7074C30.7836 16.7074 31.5011 17.3688 31.5011 18.1828C31.5011 18.9967 30.7836 19.6581 29.9007 19.6581C29.0177 19.6581 28.3002 18.9967 28.3002 18.1828C28.3002 17.3688 29.0177 16.7074 29.9007 16.7074Z" fill="white"/>
<path d="M22.6004 10.0246C23.4834 10.0246 24.2009 10.6871 24.2009 11.5C24.2009 12.313 23.4834 12.9754 22.6004 12.9754C21.7175 12.9754 21 12.314 21 11.5C21 10.6861 21.7175 10.0246 22.6004 10.0246Z" fill="white"/>
<path d="M40.3996 -2.01671e-05C41.2825 -2.00899e-05 42 0.661394 42 1.47536C42 2.28933 41.2825 2.95074 40.3996 2.95074C39.5166 2.95074 38.7991 2.28933 38.7991 1.47536C38.7991 0.661394 39.5166 -2.02443e-05 40.3996 -2.01671e-05Z" fill="white"/>
<path d="M40.3996 20.0492C41.2825 20.0492 42 20.7106 42 21.5246C42 22.3386 41.2825 23 40.3996 23C39.5166 23 38.7991 22.3386 38.7991 21.5246C38.7991 20.7106 39.5166 20.0492 40.3996 20.0492Z" fill="white"/>
<path d="M33.066 13.3655C33.949 13.3655 34.6664 14.0269 34.6664 14.8408C34.6664 15.6548 33.9479 16.3162 33.066 16.3162C32.1842 16.3162 31.4656 15.6548 31.4656 14.8408C31.4656 14.0269 32.183 13.3655 33.066 13.3655Z" fill="white"/>
<path d="M33.066 6.68272C33.949 6.68272 34.6664 7.34413 34.6664 8.1581C34.6664 8.97207 33.9479 9.63348 33.066 9.63348C32.1842 9.63348 31.4656 8.97207 31.4656 8.1581C31.4656 7.34413 32.183 6.68272 33.066 6.68272Z" fill="white"/>
<path d="M36.7322 3.34086C37.6152 3.34086 38.3326 4.00227 38.3326 4.81624C38.3326 5.63021 37.6152 6.29163 36.7322 6.29163C35.8492 6.29163 35.1318 5.62919 35.1318 4.81624C35.1318 4.0033 35.8492 3.34086 36.7322 3.34086Z" fill="white"/>
<path d="M36.7322 16.7074C37.6152 16.7074 38.3326 17.3688 38.3326 18.1828C38.3326 18.9967 37.6152 19.6581 36.7322 19.6581C35.8492 19.6581 35.1318 18.9967 35.1318 18.1828C35.1318 17.3688 35.8492 16.7074 36.7322 16.7074Z" fill="white"/>
<path d="M29.4331 10.0246C30.316 10.0246 31.0335 10.6871 31.0335 11.5C31.0335 12.313 30.316 12.9754 29.4331 12.9754C28.5501 12.9754 27.8326 12.314 27.8326 11.5C27.8326 10.6861 28.5501 10.0246 29.4331 10.0246Z" fill="white"/>
</g>
<g clip-path="url(#clip1_507_34)">
<path d="M12.5669 -2.01671e-05C13.4499 -2.00899e-05 14.1674 0.661394 14.1674 1.47536C14.1674 2.28933 13.4499 2.95074 12.5669 2.95074C11.684 2.95074 10.9665 2.28933 10.9665 1.47536C10.9665 0.661394 11.684 -2.02443e-05 12.5669 -2.01671e-05Z" fill="white" fill-opacity="0.2"/>
<path d="M12.5669 20.0492C13.4499 20.0492 14.1674 20.7106 14.1674 21.5246C14.1674 22.3386 13.4499 23 12.5669 23C11.684 23 10.9665 22.3386 10.9665 21.5246C10.9665 20.7106 11.684 20.0492 12.5669 20.0492Z" fill="white" fill-opacity="0.2"/>
<path d="M5.23337 13.3655C6.11633 13.3655 6.8338 14.0269 6.8338 14.8408C6.8338 15.6548 6.11633 16.3162 5.23337 16.3162C4.35041 16.3162 3.63293 15.6548 3.63293 14.8408C3.63293 14.0269 4.35041 13.3655 5.23337 13.3655Z" fill="white" fill-opacity="0.2"/>
<path d="M5.23337 6.68272C6.11633 6.68272 6.8338 7.34413 6.8338 8.1581C6.8338 8.97207 6.11633 9.63348 5.23337 9.63348C4.35041 9.63348 3.63293 8.97207 3.63293 8.1581C3.63293 7.34413 4.35041 6.68272 5.23337 6.68272Z" fill="white" fill-opacity="0.2"/>
<path d="M8.90066 3.34086C9.78362 3.34086 10.5011 4.00227 10.5011 4.81624C10.5011 5.63021 9.78362 6.29163 8.90066 6.29163C8.0177 6.29163 7.30023 5.62919 7.30023 4.81624C7.30023 4.0033 8.0177 3.34086 8.90066 3.34086Z" fill="white" fill-opacity="0.2"/>
<path d="M8.90066 16.7074C9.78362 16.7074 10.5011 17.3688 10.5011 18.1828C10.5011 18.9967 9.78362 19.6581 8.90066 19.6581C8.0177 19.6581 7.30023 18.9967 7.30023 18.1828C7.30023 17.3688 8.0177 16.7074 8.90066 16.7074Z" fill="white" fill-opacity="0.2"/>
<path d="M1.60043 10.0246C2.48339 10.0246 3.20087 10.6871 3.20087 11.5C3.20087 12.313 2.48339 12.9754 1.60043 12.9754C0.717473 12.9754 -1.37269e-06 12.314 -1.30153e-06 11.5C-1.23037e-06 10.6861 0.717473 10.0246 1.60043 10.0246Z" fill="white" fill-opacity="0.2"/>
<path d="M19.3996 -2.01671e-05C20.2825 -2.00899e-05 21 0.661394 21 1.47536C21 2.28933 20.2825 2.95074 19.3996 2.95074C18.5166 2.95074 17.7991 2.28933 17.7991 1.47536C17.7991 0.661394 18.5166 -2.02443e-05 19.3996 -2.01671e-05Z" fill="white" fill-opacity="0.2"/>
<path d="M19.3996 20.0492C20.2825 20.0492 21 20.7106 21 21.5246C21 22.3386 20.2825 23 19.3996 23C18.5166 23 17.7991 22.3386 17.7991 21.5246C17.7991 20.7106 18.5166 20.0492 19.3996 20.0492Z" fill="white" fill-opacity="0.2"/>
<path d="M12.066 13.3655C12.949 13.3655 13.6664 14.0269 13.6664 14.8408C13.6664 15.6548 12.9479 16.3162 12.066 16.3162C11.1842 16.3162 10.4656 15.6548 10.4656 14.8408C10.4656 14.0269 11.183 13.3655 12.066 13.3655Z" fill="white" fill-opacity="0.2"/>
<path d="M12.066 6.68272C12.949 6.68272 13.6664 7.34413 13.6664 8.1581C13.6664 8.97207 12.9479 9.63348 12.066 9.63348C11.1842 9.63348 10.4656 8.97207 10.4656 8.1581C10.4656 7.34413 11.183 6.68272 12.066 6.68272Z" fill="white" fill-opacity="0.2"/>
<path d="M15.7322 3.34086C16.6152 3.34086 17.3326 4.00227 17.3326 4.81624C17.3326 5.63021 16.6152 6.29163 15.7322 6.29163C14.8492 6.29163 14.1318 5.62919 14.1318 4.81624C14.1318 4.0033 14.8492 3.34086 15.7322 3.34086Z" fill="white" fill-opacity="0.2"/>
<path d="M15.7322 16.7074C16.6152 16.7074 17.3326 17.3688 17.3326 18.1828C17.3326 18.9967 16.6152 19.6581 15.7322 19.6581C14.8492 19.6581 14.1318 18.9967 14.1318 18.1828C14.1318 17.3688 14.8492 16.7074 15.7322 16.7074Z" fill="white" fill-opacity="0.2"/>
<path d="M8.43307 10.0246C9.31603 10.0246 10.0335 10.6871 10.0335 11.5C10.0335 12.313 9.31603 12.9754 8.43307 12.9754C7.55011 12.9754 6.83264 12.314 6.83264 11.5C6.83264 10.6861 7.55011 10.0246 8.43307 10.0246Z" fill="white" fill-opacity="0.2"/>
</g>
<defs>
<clipPath id="clip0_507_34">
<rect width="21" height="23" fill="white" transform="translate(42 23) rotate(-180)"/>
</clipPath>
<clipPath id="clip1_507_34">
<rect width="21" height="23" fill="white" transform="translate(21 23) rotate(-180)"/>
</clipPath>
</defs>
</svg>
