<svg width="24" height="24" viewBox="0 0 24 24" fill="none" xmlns="http://www.w3.org/2000/svg">
<path d="M8.48065 20.8866C9.01243 20.7475 9.53959 20.6212 10.0585 20.4691C10.1758 20.4285 10.3018 20.4202 10.4234 20.445C10.545 20.4698 10.6577 20.5268 10.7497 20.6102C11.1663 20.9456 11.5995 21.2553 12.04 21.5935C12.392 21.3281 12.7653 21.0866 13.0897 20.7917C13.4584 20.4526 13.8335 20.353 14.3136 20.5392C14.6703 20.6765 15.0583 20.7318 15.4269 20.8442C15.5772 20.8894 15.6417 20.8442 15.7108 20.7208C15.9642 20.2747 16.2306 19.836 16.484 19.389C16.5248 19.3099 16.5849 19.2422 16.6586 19.1923C16.7324 19.1424 16.8175 19.1118 16.9061 19.1033C17.4222 19.036 17.9374 18.9577 18.4545 18.895C18.5945 18.8775 18.6388 18.8241 18.66 18.6867C18.7217 18.1771 18.8001 17.673 18.8655 17.1596C18.8732 17.0674 18.9038 16.9786 18.9547 16.9013C19.0056 16.824 19.075 16.7607 19.1567 16.7172C19.7198 16.3956 20.2756 16.0601 20.8368 15.7357C20.9275 15.6806 21.0285 15.6445 21.1336 15.6297C21.2272 15.6213 21.3207 15.6462 21.3978 15.7C21.4748 15.7537 21.5304 15.833 21.5548 15.9237C21.6165 16.1228 21.5363 16.3154 21.3198 16.4454C20.8737 16.7117 20.4286 16.9836 19.9705 17.2287C19.8783 17.2696 19.7994 17.3356 19.743 17.4192C19.6866 17.5029 19.655 17.6007 19.6516 17.7015C19.6009 18.2047 19.5198 18.7061 19.4498 19.2075C19.4037 19.5346 19.3005 19.6388 18.9742 19.6839C18.4213 19.7613 17.8683 19.8305 17.3209 19.9171C17.2228 19.9395 17.1371 19.9985 17.0812 20.0821C16.7937 20.5493 16.5209 21.0249 16.2426 21.4986C16.0656 21.8 15.9292 21.8562 15.5873 21.7668C15.0555 21.6285 14.5256 21.4838 13.992 21.3548C13.8991 21.3355 13.8024 21.3526 13.7219 21.4027C13.2731 21.7308 12.8326 22.0709 12.3911 22.4101C12.1331 22.6091 11.9561 22.611 11.6981 22.4101C11.2566 22.0718 10.8179 21.7308 10.3682 21.4037C10.2814 21.3503 10.1774 21.3325 10.0779 21.3539C9.5442 21.4829 9.01427 21.6304 8.48249 21.7668C8.15808 21.8516 8.02168 21.7926 7.84473 21.4995C7.56825 21.0267 7.28439 20.5558 7.01528 20.0784C6.99056 20.0283 6.95292 19.9858 6.90626 19.9552C6.85959 19.9246 6.8056 19.907 6.74985 19.9042C6.219 19.836 5.68907 19.7604 5.15914 19.6876C4.76929 19.6342 4.6845 19.5503 4.63197 19.1678C4.55824 18.6314 4.48912 18.0932 4.40433 17.5578C4.38349 17.4596 4.32576 17.3731 4.24305 17.3163C3.78224 17.0315 3.31221 16.7633 2.84587 16.4868C2.79611 16.4583 2.74818 16.4278 2.70118 16.3947C2.60782 16.3328 2.54278 16.2365 2.52032 16.1268C2.49786 16.0171 2.51981 15.903 2.58137 15.8094C2.63994 15.7178 2.7321 15.6528 2.83806 15.6283C2.94402 15.6039 3.05535 15.6219 3.14816 15.6786C3.67533 15.9763 4.18591 16.3044 4.72321 16.5827C4.88207 16.6528 5.01724 16.7673 5.11242 16.9126C5.2076 17.0578 5.25871 17.2274 5.25959 17.4011C5.28908 17.8342 5.37756 18.2637 5.42733 18.696C5.443 18.8287 5.49645 18.8729 5.62363 18.8886C6.12684 18.9503 6.62728 19.0296 7.13048 19.0904C7.23369 19.0977 7.33321 19.1318 7.4192 19.1893C7.50519 19.2469 7.57468 19.3259 7.62078 19.4185C7.90003 19.9106 8.1885 20.3917 8.48065 20.8866Z" fill="#454545"/>
<path d="M6.7326 17.299C6.55841 17.0695 6.24875 16.6622 5.94093 16.253C5.81835 16.0889 5.7566 15.9156 5.86351 15.7166C5.97042 15.5175 6.15566 15.4917 6.35658 15.4917H17.7671C17.957 15.4917 18.121 15.5276 18.2215 15.7092C18.3219 15.8908 18.2777 16.0603 18.1662 16.2281C16.7671 18.3542 14.7718 19.439 12.2521 19.5265C10.1877 19.603 8.39335 18.8989 6.7326 17.299ZM16.9837 16.3977H7.10677C8.42469 17.9321 10.102 18.7017 12.1222 18.6805C14.0825 18.6611 15.7064 17.8888 16.9837 16.3977Z" fill="#454545"/>
<path d="M6.87774 7.06914C9.39376 4.62961 13.5273 4.32087 16.3465 6.3899C17.0689 6.91502 17.6858 7.57162 18.1648 8.3253C18.2718 8.49396 18.3261 8.65709 18.2257 8.8451C18.1252 9.03311 17.9298 9.06536 17.7298 9.06536H6.33952C6.14413 9.06536 5.97087 9.03772 5.86673 8.84325C5.8217 8.76137 5.80352 8.66741 5.81477 8.57464C5.82601 8.48188 5.86611 8.39498 5.9294 8.32623C6.24643 7.90965 6.56163 7.48755 6.87774 7.06914ZM16.9824 8.15665C15.729 6.69312 14.1355 5.91988 12.2093 5.87656C10.1551 5.83048 8.45002 6.60003 7.10723 8.15849L16.9824 8.15665Z" fill="#454545"/>
<path d="M1.59352 13.6643L1 11.1787H1.51334L1.88844 12.8855L2.3428 11.1787H2.94001L3.37593 12.915L3.75748 11.1787H4.26253L3.65887 13.6671H3.12617L2.63127 11.8054L2.13728 13.6643H1.59352Z" fill="#454545"/>
<path d="M6.25355 13.6637H5.70611L5.48861 13.0987H4.4951L4.2905 13.6637H3.75781L4.72551 11.1753H5.25636L6.25355 13.6637ZM5.33193 12.6803L4.99001 11.7587L4.65454 12.6803H5.33193Z" fill="#454545"/>
<path d="M6.51953 13.6637V11.1753H7.57571C7.77094 11.1662 7.96637 11.1886 8.15448 11.2417C8.27506 11.2864 8.37702 11.3705 8.44387 11.4804C8.51919 11.598 8.55858 11.7351 8.55723 11.8748C8.56297 12.0438 8.50396 12.2087 8.39226 12.3356C8.26082 12.4678 8.08677 12.5491 7.90104 12.5651C8.00004 12.6216 8.09037 12.692 8.16923 12.7743C8.27624 12.9001 8.37185 13.0352 8.45493 13.178L8.75907 13.6628H8.15356L7.79137 13.1218C7.71091 12.9935 7.62257 12.8704 7.52686 12.7531C7.48538 12.7072 7.43357 12.6718 7.37572 12.6499C7.29344 12.6279 7.20828 12.6186 7.12319 12.6223H7.02089V13.66L6.51953 13.6637ZM7.02089 12.2296H7.38954C7.54074 12.2373 7.69232 12.2271 7.84113 12.1992C7.89837 12.1811 7.94775 12.144 7.98122 12.0942C8.01673 12.0394 8.03473 11.9751 8.03283 11.9098C8.036 11.8363 8.01206 11.7641 7.96555 11.7071C7.91726 11.6542 7.85212 11.6197 7.78123 11.6094C7.74068 11.6039 7.6181 11.6011 7.41258 11.6011H7.02089V12.2296Z" fill="#454545"/>
<path d="M9.02734 13.6637V11.1753H10.0835C10.2788 11.1662 10.4742 11.1886 10.6623 11.2417C10.784 11.2868 10.8867 11.3719 10.9535 11.4831C11.0267 11.6005 11.0645 11.7365 11.0623 11.8748C11.068 12.0438 11.009 12.2087 10.8973 12.3356C10.7659 12.4678 10.5918 12.5491 10.4061 12.5651C10.5051 12.6216 10.5954 12.692 10.6743 12.7743C10.7813 12.9001 10.8769 13.0352 10.96 13.178L11.2641 13.6628H10.6632L10.301 13.1218C10.2206 12.9935 10.1322 12.8704 10.0365 12.7531C9.99504 12.7072 9.94323 12.6718 9.88537 12.6499C9.80309 12.6279 9.71794 12.6186 9.63285 12.6223H9.5287V13.66L9.02734 13.6637ZM9.5287 12.2296H9.89735C10.0486 12.2373 10.2001 12.2271 10.3489 12.1992C10.4062 12.1811 10.4556 12.144 10.489 12.0942C10.5245 12.0394 10.5425 11.9751 10.5406 11.9098C10.5438 11.8363 10.5199 11.7641 10.4734 11.7071C10.4251 11.6542 10.3599 11.6197 10.289 11.6094C10.2485 11.6039 10.1259 11.6011 9.92039 11.6011H9.5287V12.2296Z" fill="#454545"/>
<path d="M13.7956 13.6637H13.2482L13.0306 13.0987H12.0371L11.8325 13.6637H11.2998L12.2675 11.1753H12.7984L13.7956 13.6637ZM12.874 12.6803L12.5321 11.7587L12.1966 12.6803H12.874Z" fill="#454545"/>
<path d="M13.8545 13.6637V11.1753H14.343L15.3568 12.8342V11.1753H15.8231V13.6637H15.319L14.3209 12.0453V13.6664L13.8545 13.6637Z" fill="#454545"/>
<path d="M16.9165 13.6643V11.599H16.1792V11.1787H18.1542V11.599H17.4169V13.6643H16.9165Z" fill="#454545"/>
<path d="M18.4785 13.6637V11.1753H20.3218V11.5956H18.9799V12.1485H20.2277V12.5669H18.9799V13.2434H20.3688V13.6627L18.4785 13.6637Z" fill="#454545"/>
<path d="M20.7925 11.1782H21.7141C21.8734 11.173 22.0327 11.1888 22.1879 11.2252C22.3309 11.2667 22.4602 11.346 22.562 11.4547C22.6697 11.57 22.7509 11.7075 22.7998 11.8575C22.8586 12.0474 22.886 12.2457 22.8809 12.4445C22.885 12.6239 22.8591 12.8027 22.8044 12.9735C22.7519 13.139 22.661 13.2896 22.539 13.4131C22.4381 13.5054 22.3173 13.5732 22.186 13.6113C22.0413 13.6506 21.8916 13.6683 21.7418 13.6638H20.7925V11.1782ZM21.2948 11.5985V13.2436H21.669C21.7709 13.247 21.8729 13.2393 21.9731 13.2205C22.0483 13.2031 22.1179 13.1673 22.1759 13.1164C22.2399 13.0495 22.285 12.9668 22.3067 12.8768C22.3452 12.7282 22.3623 12.5749 22.3574 12.4215C22.363 12.2723 22.3459 12.1232 22.3067 11.9791C22.2803 11.8883 22.2315 11.8056 22.1648 11.7386C22.0994 11.6787 22.0187 11.6382 21.9316 11.6215C21.7953 11.6011 21.6574 11.5931 21.5197 11.5976L21.2948 11.5985Z" fill="#454545"/>
<path d="M12.0474 2.96206C11.6004 3.30213 11.1589 3.62839 10.7285 3.96754C10.6468 4.04241 10.5468 4.09443 10.4385 4.11837C10.3303 4.14231 10.2177 4.13734 10.112 4.10394C9.62536 3.96386 9.13137 3.84865 8.64383 3.71225C8.62199 3.70176 8.59829 3.69569 8.5741 3.69436C8.54991 3.69304 8.52569 3.6965 8.50283 3.70455C8.47998 3.7126 8.45893 3.72507 8.4409 3.74126C8.42287 3.75744 8.40821 3.77703 8.39776 3.79889C8.39475 3.80479 8.39228 3.81096 8.39039 3.81732C8.14063 4.25785 7.87428 4.68825 7.62913 5.13063C7.58091 5.22575 7.5087 5.30665 7.41964 5.36532C7.33058 5.424 7.22775 5.45841 7.12132 5.46517C6.61811 5.52416 6.11675 5.60434 5.61447 5.66701C5.49282 5.68175 5.44766 5.72599 5.43015 5.85133C5.3684 6.35361 5.2873 6.85497 5.22739 7.35818C5.22045 7.46445 5.18606 7.5671 5.12759 7.65611C5.06911 7.74512 4.98855 7.81743 4.89376 7.86599C4.32881 8.18487 3.77308 8.52126 3.21181 8.84752C2.9556 8.9959 2.70031 8.94797 2.57221 8.736C2.4441 8.52403 2.51507 8.26229 2.78141 8.10469C3.24222 7.8282 3.71225 7.55172 4.18688 7.28906C4.25609 7.25496 4.31465 7.2026 4.35623 7.13762C4.39782 7.07264 4.42084 6.99753 4.42282 6.92041C4.48549 6.39601 4.5629 5.87345 4.63479 5.35366C4.68087 5.02556 4.7804 4.92418 5.11034 4.87718C5.64765 4.80161 6.18403 4.72327 6.72318 4.65876C6.78927 4.65479 6.85307 4.6331 6.90789 4.59597C6.9627 4.55883 7.0065 4.50762 7.03468 4.44771C7.29366 3.9869 7.56554 3.53622 7.83281 3.08094C8.02542 2.75285 8.14524 2.704 8.51941 2.80446C9.03736 2.93901 9.55531 3.07081 10.0714 3.21274C10.1281 3.23115 10.1886 3.23411 10.2467 3.22131C10.3049 3.20851 10.3586 3.18041 10.4023 3.13993C10.841 2.79709 11.2852 2.46162 11.7303 2.12615C11.9543 1.95749 12.1294 1.95841 12.3552 2.12615C12.7994 2.45977 13.2436 2.79524 13.6814 3.13993C13.7257 3.17962 13.7798 3.20691 13.838 3.21904C13.8963 3.23118 13.9567 3.22773 14.0132 3.20905C14.5357 3.06528 15.0611 2.93256 15.5855 2.79524C15.9302 2.70308 16.0629 2.76206 16.2407 3.06436C16.5172 3.53807 16.7937 4.01454 17.0794 4.48181C17.136 4.56493 17.2225 4.62303 17.3209 4.64401C17.8637 4.73064 18.4093 4.79884 18.9531 4.87441C19.3042 4.92234 19.401 5.02095 19.4498 5.37762C19.5235 5.91492 19.5908 6.45407 19.6775 6.98861C19.6992 7.0935 19.7606 7.18595 19.8489 7.24666C20.3217 7.53882 20.8055 7.81346 21.2848 8.09547C21.5281 8.24017 21.6175 8.42818 21.5502 8.64107C21.5209 8.74558 21.4515 8.83424 21.357 8.88762C21.2625 8.941 21.1507 8.95475 21.0461 8.92585C21.0171 8.91721 20.989 8.90579 20.9622 8.89175C20.3226 8.53232 19.6876 8.16275 19.0646 7.77567C18.9632 7.713 18.895 7.54619 18.8729 7.41624C18.7872 6.91027 18.719 6.40246 18.6609 5.89004C18.6425 5.72876 18.5761 5.68083 18.4259 5.66332C17.9227 5.60249 17.4223 5.52416 16.919 5.46056C16.8276 5.45243 16.7396 5.42129 16.6634 5.37005C16.5872 5.31881 16.5252 5.24913 16.4831 5.16749C16.2334 4.72696 15.9679 4.29564 15.7219 3.85418C15.6408 3.70857 15.5606 3.67908 15.4011 3.72516C14.9284 3.86156 14.4482 3.97123 13.9745 4.10671C13.873 4.13939 13.7647 4.1451 13.6603 4.12329C13.5559 4.10148 13.459 4.05288 13.3791 3.98229C12.9478 3.63945 12.5082 3.31227 12.0474 2.96206Z" fill="#454545"/>
</svg>
