<svg width="30" height="30" viewBox="0 0 30 30" fill="none" xmlns="http://www.w3.org/2000/svg">
<path d="M6.5625 25.3125V6.5625C6.5625 6.06522 6.76004 5.58831 7.11167 5.23667C7.46331 4.88504 7.94022 4.6875 8.4375 4.6875H17.8125C18.3098 4.6875 18.7867 4.88504 19.1383 5.23667C19.49 5.58831 19.6875 6.06522 19.6875 6.5625V25.3125" stroke="#454545" stroke-width="1.0625" stroke-linecap="round" stroke-linejoin="round"/>
<path d="M3.75 25.3125H22.5" stroke="#454545" stroke-width="1.0625" stroke-linecap="round" stroke-linejoin="round"/>
<path d="M19.6875 13.125H22.5C22.9973 13.125 23.4742 13.3225 23.8258 13.6742C24.1775 14.0258 24.375 14.5027 24.375 15V19.6875C24.375 20.1848 24.5725 20.6617 24.9242 21.0133C25.2758 21.365 25.7527 21.5625 26.25 21.5625C26.7473 21.5625 27.2242 21.365 27.5758 21.0133C27.9275 20.6617 28.125 20.1848 28.125 19.6875V10.1484C28.1229 9.65174 27.925 9.17592 27.5742 8.82422L25.3125 6.5625" stroke="#454545" stroke-width="1.0625" stroke-linecap="round" stroke-linejoin="round"/>
<path d="M15.9375 13.125H10.3125" stroke="#454545" stroke-width="1.0625" stroke-linecap="round" stroke-linejoin="round"/>
</svg>
