<svg width="94" height="37" viewBox="0 0 94 37" fill="none" xmlns="http://www.w3.org/2000/svg">
<g clip-path="url(#clip0_467_36)">
<path d="M80.3464 4.51806e-06C81.776 4.39309e-06 82.9376 1.06402 82.9376 2.37345C82.9376 3.68288 81.776 4.74689 80.3464 4.74689C78.9169 4.74689 77.7553 3.68288 77.7553 2.37345C77.7553 1.06402 78.9169 4.64304e-06 80.3464 4.51806e-06Z" fill="white"/>
<path d="M80.3464 32.2531C81.776 32.2531 82.9376 33.3171 82.9376 34.6266C82.9376 35.936 81.776 37 80.3464 37C78.9169 37 77.7553 35.936 77.7553 34.6266C77.7553 33.3171 78.9169 32.2531 80.3464 32.2531Z" fill="white"/>
<path d="M68.473 21.501C69.9026 21.501 71.0642 22.565 71.0642 23.8744C71.0642 25.1838 69.9026 26.2479 68.473 26.2479C67.0435 26.2479 65.8819 25.1838 65.8819 23.8744C65.8819 22.565 67.0435 21.501 68.473 21.501Z" fill="white"/>
<path d="M68.473 10.7505C69.9026 10.7505 71.0642 11.8145 71.0642 13.1239C71.0642 14.4334 69.9026 15.4974 68.473 15.4974C67.0435 15.4974 65.8819 14.4334 65.8819 13.1239C65.8819 11.8145 67.0435 10.7505 68.473 10.7505Z" fill="white"/>
<path d="M74.4107 5.37442C75.8402 5.37442 77.0018 6.43844 77.0018 7.74786C77.0018 9.05729 75.8402 10.1213 74.4107 10.1213C72.9811 10.1213 71.8195 9.05565 71.8195 7.74787C71.8195 6.44008 72.9811 5.37442 74.4107 5.37442Z" fill="white"/>
<path d="M74.4107 26.877C75.8402 26.877 77.0018 27.9411 77.0018 29.2505C77.0018 30.5599 75.8402 31.6239 74.4107 31.6239C72.9811 31.6239 71.8195 30.5599 71.8195 29.2505C71.8195 27.9411 72.9811 26.877 74.4107 26.877Z" fill="white"/>
<path d="M62.5912 16.1266C64.0207 16.1266 65.1824 17.1922 65.1824 18.5C65.1824 19.8078 64.0207 20.8734 62.5912 20.8734C61.1616 20.8734 60 19.8094 60 18.5C60 17.1906 61.1616 16.1266 62.5912 16.1266Z" fill="white"/>
<path d="M91.4088 4.51806e-06C92.8384 4.39309e-06 94 1.06402 94 2.37345C94 3.68288 92.8384 4.74689 91.4088 4.74689C89.9793 4.74689 88.8176 3.68288 88.8176 2.37345C88.8176 1.06402 89.9793 4.64304e-06 91.4088 4.51806e-06Z" fill="white"/>
<path d="M91.4088 32.2531C92.8384 32.2531 94 33.3171 94 34.6266C94 35.936 92.8384 37 91.4088 37C89.9793 37 88.8176 35.936 88.8176 34.6266C88.8176 33.3171 89.9793 32.2531 91.4088 32.2531Z" fill="white"/>
<path d="M79.5354 21.501C80.965 21.501 82.1266 22.565 82.1266 23.8744C82.1266 25.1838 80.9632 26.2479 79.5354 26.2479C78.1077 26.2479 76.9442 25.1838 76.9442 23.8744C76.9442 22.565 78.1059 21.501 79.5354 21.501Z" fill="white"/>
<path d="M79.5354 10.7505C80.965 10.7505 82.1266 11.8145 82.1266 13.1239C82.1266 14.4334 80.9632 15.4974 79.5354 15.4974C78.1077 15.4974 76.9442 14.4334 76.9442 13.1239C76.9442 11.8145 78.1059 10.7505 79.5354 10.7505Z" fill="white"/>
<path d="M85.4712 5.37442C86.9008 5.37442 88.0624 6.43844 88.0624 7.74786C88.0624 9.05729 86.9008 10.1213 85.4712 10.1213C84.0416 10.1213 82.88 9.05565 82.88 7.74787C82.88 6.44008 84.0416 5.37442 85.4712 5.37442Z" fill="white"/>
<path d="M85.4712 26.877C86.9008 26.877 88.0624 27.9411 88.0624 29.2505C88.0624 30.5599 86.9008 31.6239 85.4712 31.6239C84.0416 31.6239 82.88 30.5599 82.88 29.2505C82.88 27.9411 84.0416 26.877 85.4712 26.877Z" fill="white"/>
<path d="M73.6536 16.1266C75.0831 16.1266 76.2448 17.1922 76.2448 18.5C76.2448 19.8078 75.0831 20.8734 73.6536 20.8734C72.224 20.8734 71.0624 19.8094 71.0624 18.5C71.0624 17.1906 72.224 16.1266 73.6536 16.1266Z" fill="white"/>
</g>
<g clip-path="url(#clip1_467_36)">
<path d="M20.3464 4.51806e-06C21.776 4.39309e-06 22.9376 1.06402 22.9376 2.37345C22.9376 3.68288 21.776 4.74689 20.3464 4.74689C18.9169 4.74689 17.7553 3.68288 17.7553 2.37345C17.7553 1.06402 18.9169 4.64304e-06 20.3464 4.51806e-06Z" fill="white" fill-opacity="0.2"/>
<path d="M20.3464 32.2531C21.776 32.2531 22.9376 33.3171 22.9376 34.6266C22.9376 35.936 21.776 37 20.3464 37C18.9169 37 17.7553 35.936 17.7553 34.6266C17.7553 33.3171 18.9169 32.2531 20.3464 32.2531Z" fill="white" fill-opacity="0.2"/>
<path d="M8.47303 21.501C9.90258 21.501 11.0642 22.565 11.0642 23.8744C11.0642 25.1838 9.90258 26.2479 8.47303 26.2479C7.04348 26.2479 5.88185 25.1838 5.88185 23.8744C5.88185 22.565 7.04348 21.501 8.47303 21.501Z" fill="white" fill-opacity="0.2"/>
<path d="M8.47303 10.7505C9.90258 10.7505 11.0642 11.8145 11.0642 13.1239C11.0642 14.4334 9.90258 15.4974 8.47303 15.4974C7.04348 15.4974 5.88185 14.4334 5.88185 13.1239C5.88185 11.8145 7.04348 10.7505 8.47303 10.7505Z" fill="white" fill-opacity="0.2"/>
<path d="M14.4107 5.37442C15.8402 5.37442 17.0018 6.43844 17.0018 7.74786C17.0018 9.05729 15.8402 10.1213 14.4107 10.1213C12.9811 10.1213 11.8195 9.05565 11.8195 7.74787C11.8195 6.44008 12.9811 5.37442 14.4107 5.37442Z" fill="white" fill-opacity="0.2"/>
<path d="M14.4107 26.877C15.8402 26.877 17.0018 27.9411 17.0018 29.2505C17.0018 30.5599 15.8402 31.6239 14.4107 31.6239C12.9811 31.6239 11.8195 30.5599 11.8195 29.2505C11.8195 27.9411 12.9811 26.877 14.4107 26.877Z" fill="white" fill-opacity="0.2"/>
<path d="M2.59119 16.1266C4.02075 16.1266 5.18237 17.1922 5.18237 18.5C5.18237 19.8078 4.02075 20.8734 2.59119 20.8734C1.16164 20.8734 1.61194e-05 19.8094 1.6005e-05 18.5C1.58905e-05 17.1906 1.16164 16.1266 2.59119 16.1266Z" fill="white" fill-opacity="0.2"/>
<path d="M31.4088 4.51806e-06C32.8384 4.39309e-06 34 1.06402 34 2.37345C34 3.68288 32.8384 4.74689 31.4088 4.74689C29.9793 4.74689 28.8176 3.68288 28.8176 2.37345C28.8176 1.06402 29.9793 4.64304e-06 31.4088 4.51806e-06Z" fill="white" fill-opacity="0.2"/>
<path d="M31.4088 32.2531C32.8384 32.2531 34 33.3171 34 34.6266C34 35.936 32.8384 37 31.4088 37C29.9793 37 28.8176 35.936 28.8176 34.6266C28.8176 33.3171 29.9793 32.2531 31.4088 32.2531Z" fill="white" fill-opacity="0.2"/>
<path d="M19.5354 21.501C20.965 21.501 22.1266 22.565 22.1266 23.8744C22.1266 25.1838 20.9632 26.2479 19.5354 26.2479C18.1077 26.2479 16.9442 25.1838 16.9442 23.8744C16.9442 22.565 18.1059 21.501 19.5354 21.501Z" fill="white" fill-opacity="0.2"/>
<path d="M19.5354 10.7505C20.965 10.7505 22.1266 11.8145 22.1266 13.1239C22.1266 14.4334 20.9632 15.4974 19.5354 15.4974C18.1077 15.4974 16.9442 14.4334 16.9442 13.1239C16.9442 11.8145 18.1059 10.7505 19.5354 10.7505Z" fill="white" fill-opacity="0.2"/>
<path d="M25.4712 5.37442C26.9008 5.37442 28.0624 6.43844 28.0624 7.74786C28.0624 9.05729 26.9008 10.1213 25.4712 10.1213C24.0416 10.1213 22.88 9.05565 22.88 7.74787C22.88 6.44008 24.0416 5.37442 25.4712 5.37442Z" fill="white" fill-opacity="0.2"/>
<path d="M25.4712 26.877C26.9008 26.877 28.0624 27.9411 28.0624 29.2505C28.0624 30.5599 26.9008 31.6239 25.4712 31.6239C24.0416 31.6239 22.88 30.5599 22.88 29.2505C22.88 27.9411 24.0416 26.877 25.4712 26.877Z" fill="white" fill-opacity="0.2"/>
<path d="M13.6536 16.1266C15.0831 16.1266 16.2448 17.1922 16.2448 18.5C16.2448 19.8078 15.0831 20.8734 13.6536 20.8734C12.224 20.8734 11.0624 19.8094 11.0624 18.5C11.0624 17.1906 12.224 16.1266 13.6536 16.1266Z" fill="white" fill-opacity="0.2"/>
</g>
<defs>
<clipPath id="clip0_467_36">
<rect width="34" height="37" fill="white" transform="translate(94 37) rotate(180)"/>
</clipPath>
<clipPath id="clip1_467_36">
<rect width="34" height="37" fill="white" transform="translate(34 37) rotate(180)"/>
</clipPath>
</defs>
</svg>
