<svg width="21" height="18" viewBox="0 0 21 18" fill="none" xmlns="http://www.w3.org/2000/svg">
<path d="M4.96426 14.8605V13.3826H5.25857V14.8605H4.96426Z" fill="#454545"/>
<path d="M5.5417 14.8605V13.3826H5.82854L6.42464 14.3695V13.3826H6.69745V14.8605H6.40221L5.81545 13.8964V14.8605H5.5417Z" fill="#454545"/>
<path d="M6.93447 14.3798L7.22037 14.3513C7.23013 14.4331 7.26704 14.5089 7.32501 14.5665C7.3859 14.6146 7.46188 14.6389 7.53897 14.6347C7.61508 14.6404 7.69074 14.619 7.75294 14.5741C7.77487 14.5573 7.79276 14.5358 7.80522 14.511C7.81769 14.4861 7.82441 14.4588 7.82488 14.431C7.82556 14.3986 7.81497 14.3671 7.79498 14.3419C7.76526 14.3118 7.72867 14.2896 7.68846 14.2774C7.65389 14.266 7.57541 14.2442 7.45301 14.2129C7.3329 14.1906 7.21942 14.1407 7.12133 14.067C7.05008 14.0056 7.00348 13.92 6.99039 13.8261C6.9773 13.7323 6.99863 13.6369 7.05032 13.5579C7.09456 13.4906 7.15772 13.4384 7.23159 13.4081C7.32285 13.3718 7.42039 13.3544 7.51842 13.3569C7.66611 13.3458 7.81278 13.3892 7.93139 13.4792C7.97721 13.5197 8.01394 13.5696 8.03909 13.6257C8.06423 13.6819 8.07721 13.7427 8.07714 13.8044L7.78283 13.8176C7.77716 13.7547 7.7485 13.6962 7.70248 13.6536C7.64725 13.6168 7.58156 13.5994 7.51561 13.6044C7.44481 13.6 7.37448 13.6186 7.31474 13.6574C7.29958 13.6679 7.28732 13.6821 7.27914 13.6986C7.27095 13.7152 7.26713 13.7337 7.26802 13.7523C7.26748 13.7704 7.27116 13.7885 7.27879 13.8049C7.28642 13.8214 7.29777 13.8359 7.31193 13.847C7.39541 13.8952 7.48696 13.9273 7.58196 13.9418C7.69168 13.9641 7.79835 13.9997 7.89962 14.048C7.96589 14.0825 8.02173 14.1346 8.06126 14.1987C8.10133 14.2715 8.12142 14.3539 8.11945 14.4372C8.11747 14.5206 8.0935 14.6019 8.05004 14.6726C8.00288 14.7472 7.93396 14.8048 7.85291 14.8376C7.75154 14.8766 7.6436 14.895 7.53524 14.8916C7.38298 14.9022 7.23216 14.856 7.11105 14.7618C7.00529 14.6627 6.94191 14.5256 6.93447 14.3798Z" fill="#454545"/>
<path d="M8.36681 14.8606V13.3827H8.83397C8.95121 13.3777 9.06865 13.385 9.18433 13.4046C9.26857 13.4267 9.34263 13.4779 9.39358 13.5496C9.45278 13.6319 9.48267 13.7322 9.4787 13.834C9.48093 13.9133 9.46423 13.992 9.43007 14.0633C9.40086 14.1214 9.35816 14.1715 9.30584 14.2094C9.26013 14.2427 9.20831 14.2666 9.15347 14.2795C9.05254 14.2959 8.95024 14.3029 8.84795 14.3003H8.66112V14.8578L8.36681 14.8606ZM8.66112 13.6283V14.0482H8.82184C8.90006 14.0526 8.97848 14.0449 9.05448 14.0254C9.09223 14.0113 9.12474 13.9858 9.14794 13.9524C9.16987 13.9184 9.18123 13.8784 9.18064 13.8377C9.18268 13.7888 9.16589 13.7408 9.13386 13.7041C9.10329 13.6692 9.06166 13.646 9.01614 13.6387C8.94578 13.6299 8.87493 13.6264 8.80408 13.6283H8.66112Z" fill="#454545"/>
<path d="M9.72453 14.8605V13.3826H10.8055V13.6319H10.0188V13.9599H10.7504V14.2093H10.0188V14.6121H10.8382V14.8605H9.72453Z" fill="#454545"/>
<path d="M12.0157 14.3147L12.3006 14.4095C12.2692 14.5506 12.1922 14.677 12.082 14.7688C11.9697 14.8508 11.8335 14.8922 11.6952 14.8863C11.6061 14.8891 11.5175 14.8725 11.4352 14.8379C11.3529 14.8032 11.2788 14.7512 11.2178 14.6854C11.0871 14.5336 11.02 14.3359 11.0309 14.1346C11.0192 13.9278 11.0861 13.7243 11.2178 13.5659C11.2812 13.4982 11.3579 13.4449 11.4432 13.4098C11.5285 13.3747 11.6201 13.3584 11.712 13.362C11.872 13.3549 12.0283 13.4125 12.1465 13.5222C12.2194 13.5978 12.2709 13.6917 12.296 13.7943L12.0045 13.8654C11.9905 13.794 11.9525 13.7296 11.8971 13.6834C11.8398 13.6387 11.7692 13.6154 11.697 13.6171C11.6473 13.6156 11.5979 13.6254 11.5525 13.6459C11.5071 13.6665 11.4667 13.6971 11.4345 13.7355C11.3582 13.8461 11.3225 13.9802 11.3337 14.1147C11.3208 14.2553 11.3557 14.3961 11.4327 14.5138C11.4639 14.5525 11.5035 14.5833 11.5484 14.604C11.5933 14.6248 11.6422 14.6347 11.6915 14.6333C11.7658 14.6346 11.8379 14.6076 11.8933 14.5574C11.9581 14.4915 12.0009 14.4066 12.0157 14.3147Z" fill="#454545"/>
<path d="M12.8808 14.8604V13.6281H12.4491V13.3788H13.6068V13.6281H13.1742V14.8604H12.8808Z" fill="#454545"/>
<path d="M13.7964 14.8605V13.3826H14.8775V13.6319H14.0908V13.9599H14.8223V14.2093H14.0908V14.6121H14.9054V14.8605H13.7964Z" fill="#454545"/>
<path d="M15.1539 13.3827H15.6912C15.7853 13.3796 15.8795 13.3888 15.9715 13.4103C16.0554 13.4348 16.1313 13.482 16.191 13.5468C16.254 13.6155 16.3014 13.6973 16.3302 13.7866C16.3647 13.8995 16.3808 14.0172 16.3778 14.1354C16.3801 14.2421 16.365 14.3485 16.333 14.4501C16.3025 14.5489 16.249 14.6386 16.177 14.7117C16.1183 14.767 16.0475 14.8073 15.9705 14.8293C15.8856 14.8527 15.7977 14.8633 15.7098 14.8606H15.1567L15.1539 13.3827ZM15.4473 13.632V14.6123H15.6678C15.7273 14.6143 15.7869 14.6095 15.8453 14.598C15.8892 14.5875 15.9298 14.5663 15.964 14.5364C16.0015 14.4963 16.0282 14.447 16.0415 14.3933C16.0634 14.3057 16.0732 14.2154 16.0704 14.125C16.0736 14.0361 16.0635 13.9473 16.0406 13.8615C16.0248 13.8073 15.9959 13.7581 15.9565 13.7183C15.9186 13.6827 15.8717 13.6584 15.821 13.6482C15.741 13.636 15.6599 13.6312 15.579 13.634L15.4473 13.632Z" fill="#454545"/>
<path d="M0 13.5749C0.128935 13.3579 0.319538 13.2905 0.566198 13.2905C1.22023 13.301 1.87425 13.2905 2.53481 13.2905H2.78242V12.3038C2.78242 11.8298 2.88706 11.716 3.35516 11.7056C3.38785 11.7056 3.42149 11.7056 3.47381 11.6961C2.46101 9.5907 2.30685 7.43041 3.09168 5.23872C3.6537 3.65276 4.70735 2.29439 6.09459 1.36731C8.88919 -0.543751 12.5965 -0.442319 15.2509 1.61378C16.772 2.79397 17.7736 4.32964 18.1987 6.22553C18.6238 8.12146 18.3857 9.94056 17.5186 11.7085H17.7605C18.0596 11.7151 18.2156 11.8687 18.2183 12.1701V13.2963H20.486C20.6728 13.2963 20.842 13.3323 20.9447 13.5105C21.0475 13.6888 20.9933 13.8527 20.8933 14.0166C20.5981 14.4992 20.3159 14.9902 20.0151 15.469C19.9733 15.5217 19.9505 15.5875 19.9505 15.6553C19.9505 15.723 19.9733 15.7887 20.0151 15.8415C20.3113 16.3155 20.5916 16.799 20.8821 17.2766C20.9811 17.4388 21.0437 17.5999 20.9456 17.7829C20.8476 17.9658 20.6831 18.0009 20.4925 18H16.2077C15.8387 18 15.705 17.8606 15.7041 17.4824C15.7032 17.1041 15.7041 16.7089 15.7041 16.2946H12.333C12.0527 16.2946 11.8659 16.125 11.8659 15.8804C11.8659 15.6358 12.0444 15.4794 12.3144 15.4642H17.3784V12.5531H3.6205V15.4566H8.4902C8.57878 15.4538 8.66741 15.4604 8.75458 15.4765C8.84969 15.4979 8.93394 15.5533 8.99178 15.6327C9.04972 15.7121 9.07748 15.81 9.06981 15.9084C9.06214 16.0069 9.01973 16.0993 8.95034 16.1685C8.88095 16.2377 8.78913 16.2792 8.69201 16.2852C8.62473 16.2899 8.55559 16.2852 8.48739 16.2852H5.29387V17.4492C5.29387 17.8644 5.16774 17.9905 4.75196 17.9905H0.527891C0.280299 17.9905 0.103711 17.9166 0 17.6843V17.4426C0.331689 16.8965 0.659631 16.3477 0.997862 15.8054C1.03327 15.7607 1.05257 15.705 1.05257 15.6477C1.05257 15.5903 1.03327 15.5345 0.997862 15.4898C0.660563 14.939 0.331689 14.3807 0 13.8242V13.5749ZM10.4775 11.7056H14.2485C14.3084 11.7101 14.3683 11.6996 14.4233 11.675C14.4782 11.6504 14.5263 11.6124 14.5633 11.5644C15.5985 10.3216 16.0302 8.89207 15.8349 7.27965C15.4518 4.12583 12.4564 1.97115 9.38805 2.62808C5.37609 3.49165 3.73075 8.46649 6.43188 11.5653C6.46916 11.613 6.51724 11.6511 6.57206 11.676C6.62687 11.7009 6.68679 11.712 6.74675 11.7085C7.99127 11.6999 9.2349 11.7056 10.4784 11.7056H10.4775ZM15.5229 11.7056C15.8171 11.7056 16.0835 11.6933 16.3498 11.7056C16.4193 11.7148 16.4897 11.6999 16.5499 11.6635C16.6101 11.627 16.6564 11.5711 16.6814 11.5046C17.5419 9.93731 17.7925 8.09989 17.3841 6.35445C16.3563 1.75217 11.0643 -0.620536 7.04292 1.74838C4.70245 3.12859 3.49344 5.23492 3.4243 7.984C3.39906 9.23897 3.71836 10.4763 4.34648 11.5577C4.38011 11.6175 4.44551 11.6961 4.49783 11.699C4.81551 11.7113 5.13317 11.7046 5.48728 11.7046C4.51932 10.3121 4.13625 8.80207 4.34927 7.1545C4.44248 6.36019 4.68918 5.5923 5.07524 4.89481C5.4613 4.19732 5.97913 3.58393 6.59913 3.08973C7.70665 2.17723 9.09068 1.68059 10.5174 1.6837C11.9441 1.6868 13.3261 2.18948 14.4297 3.10679C16.7553 5.0131 17.6008 8.77736 15.5257 11.7056H15.5229ZM1.14548 14.1381C1.34636 14.4727 1.5052 14.8016 1.71915 15.0803C2.02094 15.4756 2.02094 15.8234 1.71915 16.2178C1.50426 16.5022 1.34543 16.8236 1.15015 17.1516H4.45766V16.2889H3.2365C2.93191 16.2889 2.78896 16.1363 2.78428 15.8254V14.1381H1.14548ZM19.8479 14.1447H18.2193V15.8462C18.2193 16.1307 18.0679 16.2794 17.7886 16.2889H16.5376V17.1516H19.8394C19.7984 17.0758 19.7684 17.016 19.7338 16.9619C19.5404 16.6359 19.3545 16.3041 19.1471 15.9875C19.0739 15.8914 19.0342 15.7733 19.0342 15.6519C19.0342 15.5305 19.0739 15.4124 19.1471 15.3163C19.3863 14.9371 19.6059 14.5495 19.8479 14.1447Z" fill="#454545"/>
<path d="M10.4868 16.288C10.4339 16.2872 10.3816 16.2757 10.333 16.2543C10.2844 16.233 10.2405 16.2021 10.2036 16.1634C10.1668 16.1248 10.1379 16.0791 10.1186 16.029C10.0992 15.979 10.0896 15.9257 10.0906 15.8719C10.0939 15.762 10.14 15.658 10.2188 15.5826C10.2977 15.5073 10.4028 15.4667 10.5111 15.4699C10.6194 15.4733 10.7219 15.5201 10.7963 15.6C10.8705 15.68 10.9105 15.7867 10.9072 15.8965C10.9027 16.005 10.8558 16.1072 10.7769 16.1806C10.6981 16.254 10.5937 16.2926 10.4868 16.288Z" fill="#454545"/>
<path d="M9.68338 7.67106C10.486 6.85488 11.2643 6.06525 12.0379 5.27276C12.3303 4.97416 12.6732 4.82154 13.0899 4.86894C13.3103 4.88545 13.5213 4.96565 13.6982 5.10004C13.875 5.23443 14.0102 5.41739 14.0878 5.6273C14.1786 5.83501 14.2097 6.06451 14.1777 6.28939C14.1457 6.51428 14.0516 6.72541 13.9066 6.89848C13.855 6.96298 13.7991 7.02383 13.7393 7.08045L10.7233 10.1433C10.0693 10.8069 9.29662 10.8069 8.6491 10.148C8.14177 9.63334 7.62135 9.12711 7.12989 8.601C6.97935 8.44325 6.87285 8.24769 6.82128 8.03441C6.76973 7.82113 6.77497 7.59771 6.83648 7.38718C6.89798 7.17666 7.01354 6.98651 7.17132 6.83613C7.3291 6.6858 7.52342 6.58071 7.7344 6.53164C7.94074 6.47682 8.15779 6.47923 8.3629 6.53859C8.56802 6.59795 8.75361 6.71209 8.90045 6.8691C9.15648 7.12506 9.40872 7.38767 9.68338 7.67106ZM9.67591 9.84278C9.8111 9.78242 9.94028 9.70906 10.0618 9.62379C10.2281 9.48258 10.3748 9.3148 10.529 9.15843L13.1824 6.46717C13.3048 6.34394 13.4169 6.20175 13.3516 6.03017C13.2999 5.89982 13.2064 5.79094 13.0862 5.72114C12.9199 5.63488 12.7592 5.72114 12.6275 5.85196C11.7666 6.7266 10.9067 7.59968 10.0478 8.47112C9.78616 8.7356 9.58623 8.7356 9.32652 8.47112C8.99663 8.13938 8.67246 7.80754 8.33984 7.47295C8.14177 7.2767 7.88857 7.2701 7.72226 7.44636C7.55595 7.62272 7.5681 7.8682 7.75963 8.05785C8.26416 8.5754 8.76962 9.09295 9.28449 9.60016C9.38533 9.70345 9.53013 9.75652 9.67591 9.84278Z" fill="#454545"/>
</svg>
