<svg width="27" height="21" viewBox="0 0 27 21" fill="none" xmlns="http://www.w3.org/2000/svg">
<path d="M0 10.7178C0.20045 10.1024 0.640914 9.86421 1.27128 9.89323C1.7346 9.91426 2.1988 9.89323 2.69465 9.89323V8.82673C2.69465 7.88698 2.9584 7.51418 3.83757 7.19767V6.99283C3.81987 6.75927 3.86383 6.52517 3.96505 6.31394C4.06626 6.10272 4.22119 5.92178 4.4143 5.78925C4.6886 5.58527 4.98224 5.4033 5.23896 5.17383C5.38509 5.04289 5.49628 4.87762 5.5625 4.69293C5.66976 4.37907 5.72339 4.04673 5.80251 3.72584C5.94406 3.15262 6.29749 2.74293 6.88037 2.67084C7.79206 2.55479 8.44793 2.14334 8.90245 1.33362C9.21896 0.7648 9.77723 0.612704 10.4076 0.718206C10.5994 0.738551 10.7899 0.769962 10.9782 0.812271C11.4397 0.953818 11.8336 0.838655 12.209 0.556438C12.3958 0.425384 12.5908 0.306453 12.7928 0.200377C13.004 0.0694015 13.2476 0 13.4961 0C13.7447 0 13.9883 0.0694015 14.1995 0.200377C14.5116 0.376203 14.807 0.588962 15.127 0.752496C15.2886 0.833583 15.4686 0.870876 15.6492 0.86063C15.9719 0.840409 16.291 0.772717 16.6163 0.719961C17.2317 0.619733 17.7416 0.797325 18.1109 1.32219C18.2826 1.58791 18.4704 1.84277 18.6735 2.08531C18.8107 2.2364 18.9828 2.3517 19.1747 2.42116C19.521 2.53984 19.8886 2.59698 20.2428 2.69809C20.466 2.7543 20.6696 2.87027 20.8318 3.03355C20.994 3.19681 21.1086 3.4012 21.1634 3.62474C21.2688 4.00454 21.3391 4.39401 21.4596 4.76765C21.5113 4.91289 21.5994 5.04243 21.7154 5.14393C21.8866 5.29498 22.0708 5.43061 22.2658 5.54923C22.8725 5.93255 23.283 6.41786 23.145 7.20559C23.5344 7.2935 23.8483 7.46934 24.069 7.78848C24.2896 8.10764 24.3195 8.49182 24.3126 8.87341C24.3055 9.20394 24.3126 9.53627 24.3126 9.89582C24.8672 9.89582 25.3921 9.89053 25.9161 9.89582C26.4823 9.9029 26.8928 10.1895 26.9711 10.695C26.9967 10.944 26.9555 11.1952 26.8516 11.423C26.6983 11.7485 26.5158 12.0595 26.3064 12.3523C26.1834 12.5342 26.194 12.6731 26.3126 12.849C26.4937 13.118 26.6511 13.4029 26.8156 13.6833C27.2815 14.4789 26.8234 15.2922 25.9038 15.2957H22.2843C22.0926 15.3034 21.9082 15.3712 21.7572 15.4893C21.606 15.6075 21.4958 15.77 21.442 15.9541C21.3541 16.2857 21.2803 16.6188 21.1993 16.9511C21.0613 17.5253 20.7071 17.8875 20.1339 18.0317C19.7822 18.1196 19.4305 18.1873 19.0876 18.2954C18.9415 18.3444 18.8117 18.4327 18.7122 18.5504C18.4933 18.8141 18.3008 19.0972 18.103 19.3768C17.7329 19.9043 17.2237 20.0801 16.6083 19.9764C16.2787 19.9228 15.9499 19.8585 15.6184 19.8304C15.4646 19.8183 15.3104 19.8488 15.1727 19.9184C14.8623 20.081 14.5705 20.2779 14.2698 20.4591C13.7546 20.7712 13.2412 20.7668 12.7286 20.452C12.4446 20.2762 12.1668 20.0898 11.8697 19.9394C11.7173 19.8629 11.5477 19.8268 11.3773 19.8348C11.0538 19.8569 10.7346 19.9228 10.4102 19.9764C9.77986 20.081 9.26731 19.9034 8.8963 19.361C8.76618 19.1738 8.6097 19.0022 8.49892 18.8035C8.29319 18.4352 7.98197 18.2594 7.5758 18.1934C7.29956 18.1432 7.02677 18.0758 6.75905 17.9912C6.5407 17.9346 6.34153 17.8205 6.18227 17.6608C6.02301 17.5011 5.90947 17.3016 5.8535 17.083C5.74537 16.7042 5.66184 16.3173 5.5625 15.9401C5.50614 15.7617 5.39678 15.6048 5.249 15.4901C5.1012 15.3755 4.92197 15.3086 4.7352 15.2984C3.60195 15.2984 2.46871 15.2781 1.33545 15.3062C0.702455 15.3212 0.244409 15.1234 0.00967085 14.515V14.093C0.25408 13.6586 0.492334 13.2208 0.745535 12.791C0.786179 12.7354 0.808091 12.6685 0.808091 12.5997C0.808091 12.531 0.786179 12.4639 0.745535 12.4085C0.491455 11.9918 0.2532 11.5646 0.00879168 11.1416L0 10.7178ZM13.5111 8.09527H4.21034C3.74614 8.09527 3.59492 8.24743 3.59492 8.71067V11.9777C3.59492 12.4472 3.7435 12.6001 4.20506 12.6001H22.7783C23.2417 12.6001 23.3937 12.4472 23.3937 11.9847V8.81976C23.3937 8.20436 23.283 8.09178 22.6772 8.09178L13.5111 8.09527ZM4.78268 7.19592C5.43942 7.19592 6.08824 7.188 6.73706 7.19592C6.82562 7.20626 6.91512 7.18738 6.99193 7.14214C7.06875 7.0969 7.12867 7.0278 7.16258 6.94536C8.39342 4.74215 10.2634 3.45594 12.7665 3.18867C15.7354 2.87128 18.4485 4.36412 19.8612 7.00425C19.8876 7.06705 19.9339 7.11938 19.9931 7.15309C20.0522 7.18681 20.1209 7.20001 20.1883 7.19064C20.7686 7.18272 21.348 7.19064 21.9282 7.19064C22.235 7.19064 22.3344 7.06668 22.2315 6.77216C22.185 6.6598 22.1087 6.56224 22.0109 6.48995C21.7419 6.27894 21.4632 6.0785 21.1818 5.88419C21.0204 5.77721 20.8817 5.6393 20.7738 5.47845C20.6659 5.3176 20.5909 5.13697 20.5532 4.94701C20.4864 4.62962 20.3914 4.3184 20.3281 4.00014C20.3113 3.87328 20.2527 3.75563 20.1617 3.66571C20.0707 3.57578 19.9523 3.51868 19.8253 3.50341C19.4991 3.43659 19.1765 3.35131 18.852 3.27395C18.4949 3.1977 18.1805 2.98794 17.9729 2.68754C17.7768 2.40709 17.5641 2.13806 17.3724 1.85409C17.3127 1.7504 17.2213 1.66873 17.1115 1.62121C17.0017 1.5737 16.8795 1.56287 16.7631 1.59034C16.4773 1.63958 16.189 1.6721 15.9059 1.73101C15.6792 1.78617 15.4431 1.79212 15.2138 1.74844C14.9846 1.70477 14.7673 1.61249 14.5766 1.47781C14.3393 1.3134 14.079 1.18065 13.8372 1.02063C13.7387 0.946182 13.6187 0.905897 13.4952 0.905897C13.3717 0.905897 13.2517 0.946182 13.1532 1.02063C12.8526 1.21757 12.5378 1.40132 12.2319 1.5833C11.953 1.7568 11.6199 1.82129 11.2964 1.76441C10.9509 1.70463 10.6019 1.66068 10.2564 1.60089C9.97768 1.55165 9.76316 1.62023 9.59964 1.86464C9.41238 2.15124 9.19786 2.41939 9.00005 2.69897C8.79648 2.98982 8.49124 3.19373 8.14462 3.27043C7.79295 3.35834 7.44655 3.44627 7.09577 3.52451C6.99146 3.54104 6.89511 3.59032 6.82067 3.66525C6.74622 3.74016 6.69754 3.83682 6.68167 3.94123C6.60608 4.28411 6.51112 4.62259 6.43287 4.96371C6.35763 5.33009 6.14295 5.6529 5.83416 5.86397C5.56073 6.05476 5.3005 6.26487 5.02181 6.44863C4.74311 6.63237 4.67982 6.85743 4.78268 7.19592ZM5.91416 13.5022H5.07104C4.75015 13.5022 4.63146 13.6912 4.78268 13.9831C4.83534 14.0733 4.90668 14.1512 4.99191 14.2117C5.27149 14.4236 5.55635 14.6302 5.84383 14.8324C6.14191 15.039 6.35004 15.3516 6.42584 15.7063C6.50848 16.0579 6.60168 16.4043 6.6808 16.7551C6.69654 16.8553 6.74338 16.948 6.8147 17.0201C6.886 17.0922 6.97818 17.1401 7.07819 17.1569C7.42018 17.236 7.75778 17.3327 8.10065 17.4066C8.47518 17.4802 8.80559 17.6985 9.02027 18.0141C9.21104 18.2884 9.42028 18.5486 9.60491 18.8265C9.66769 18.933 9.76332 19.0163 9.87745 19.0638C9.99159 19.1113 10.1181 19.1207 10.2379 19.0902C10.5017 19.0436 10.7777 19.0163 11.0432 18.9575C11.2788 18.8978 11.5244 18.8905 11.7631 18.936C12.0017 18.9816 12.2274 19.0789 12.4245 19.2212C12.6688 19.3908 12.9352 19.5289 13.1866 19.6897C13.276 19.755 13.3838 19.7901 13.4943 19.7901C13.605 19.7901 13.7127 19.755 13.802 19.6897C14.1133 19.4928 14.4289 19.303 14.7463 19.1148C15.0239 18.9397 15.3564 18.8733 15.6799 18.9285C16.0254 18.9882 16.3745 19.0313 16.72 19.0928C17.0102 19.1447 17.2299 19.0691 17.3978 18.8132C17.5798 18.5345 17.7891 18.2735 17.9807 18C18.1883 17.7001 18.5029 17.4912 18.8599 17.4163C19.2115 17.3345 19.5571 17.2404 19.9079 17.1622C20.0079 17.1455 20.1002 17.0979 20.1719 17.0261C20.2436 16.9545 20.2912 16.8622 20.308 16.7622C20.3861 16.4202 20.4837 16.0817 20.5576 15.7397C20.6323 15.3652 20.8515 15.0351 21.1677 14.8209C21.4491 14.6258 21.7254 14.4238 21.9968 14.2152C22.0899 14.1502 22.1668 14.0644 22.221 13.9646C22.3546 13.6772 22.2368 13.504 21.9247 13.504C21.3629 13.504 20.8002 13.5128 20.2384 13.4995C20.1542 13.4885 20.0687 13.5057 19.9954 13.5485C19.922 13.5914 19.865 13.6573 19.8331 13.736C19.0982 15.131 17.9219 16.2434 16.4881 16.8995C15.0543 17.5556 13.4436 17.7185 11.9075 17.3626C9.76668 16.873 8.18154 15.6254 7.13358 13.6982C7.0562 13.5549 6.97708 13.4934 6.81267 13.5004C6.51375 13.5084 6.21308 13.5022 5.91416 13.5022ZM8.09626 7.17834H18.8942C18.1908 5.76023 16.1917 4.04321 13.4821 4.04849C10.9017 4.05728 8.85761 5.66177 8.09626 7.17834ZM8.09626 13.5137C8.92795 15.1348 11.0257 16.6602 13.541 16.6417C16.2787 16.6215 18.2454 14.8509 18.8934 13.5137H8.09626ZM24.2967 10.7988V11.8916C24.2967 12.8023 24.0171 13.1963 23.1767 13.4847C23.1424 13.7897 23.109 14.0877 23.0747 14.3972H25.888C26.106 14.3972 26.1254 14.3005 26.0234 14.1335C25.8273 13.8108 25.6374 13.4854 25.4414 13.1664C25.3274 12.9976 25.2666 12.7985 25.2666 12.5948C25.2666 12.3913 25.3274 12.1922 25.4414 12.0234C25.6427 11.6947 25.8387 11.3623 26.0374 11.0317C26.1166 10.8999 26.1007 10.8041 25.931 10.8023C25.3957 10.8023 24.862 10.8023 24.294 10.8023L24.2967 10.7988ZM2.69729 10.7988H1.13589C0.884443 10.7988 0.858948 10.855 0.990823 11.081C1.15874 11.3684 1.3214 11.6604 1.50426 11.9382C1.79878 12.3866 1.79174 12.8173 1.49634 13.2631C1.32051 13.533 1.1605 13.8178 0.995218 14.0974C0.849276 14.3444 0.878289 14.3963 1.17105 14.3972H3.80328C3.84274 14.3956 3.88206 14.3918 3.92109 14.3857C3.88592 14.0701 3.85427 13.7774 3.82175 13.4811C3.01291 13.2244 2.70169 12.7988 2.70081 11.9382L2.69729 10.7988Z" fill="#454545"/>
</svg>
